<svg width="34" height="32" viewBox="0 0 34 32" fill="none" xmlns="http://www.w3.org/2000/svg">
<path d="M12.2778 0C10.5128 0 9.04896 1.28125 8.62986 3.0125C8.58264 3.0125 8.54722 3 8.5 3C6.41632 3 4.72222 4.79375 4.72222 7C4.72222 7.3 4.75764 7.59375 4.82257 7.875C3.09896 8.625 1.88889 10.4125 1.88889 12.5C1.88889 13.2875 2.07778 14.0187 2.37882 14.6812C0.962153 15.5437 0 17.1437 0 19C0 21.0812 1.20417 22.8687 2.91597 23.6187C2.86285 23.9062 2.83333 24.2 2.83333 24.5C2.83333 26.9875 4.73403 29 7.08333 29C7.32535 29 7.56146 28.9687 7.79167 28.925C8.35833 30.7062 9.92847 32 11.8056 32C14.1549 32 16.0556 29.9875 16.0556 27.5V4C16.0556 1.79375 14.3615 0 12.2778 0ZM34 19C34 17.1437 33.0378 15.5437 31.6212 14.6812C31.9281 14.0187 32.1111 13.2875 32.1111 12.5C32.1111 10.4125 30.901 8.625 29.1774 7.875C29.2365 7.59375 29.2778 7.3 29.2778 7C29.2778 4.79375 27.5837 3 25.5 3C25.4528 3 25.4115 3.0125 25.3701 3.0125C24.951 1.28125 23.4872 0 21.7222 0C19.6385 0 17.9444 1.7875 17.9444 4V27.5C17.9444 29.9875 19.8451 32 22.1944 32C24.0715 32 25.6417 30.7062 26.2083 28.925C26.4385 28.9687 26.6747 29 26.9167 29C29.266 29 31.1667 26.9875 31.1667 24.5C31.1667 24.2 31.1372 23.9062 31.084 23.6187C32.7958 22.8687 34 21.0812 34 19Z" fill="#4C4981"/>
<path d="M11.1895 20V15.77L9.5425 18.92H8.8675L7.2205 15.77V20H5.9785V13.61H7.3105L9.2005 17.246L11.1085 13.61H12.4315V20H11.1895Z" fill="white"/>
<path d="M21.916 20V13.61H24.238C24.76 13.61 25.216 13.694 25.606 13.862C26.002 14.03 26.332 14.258 26.596 14.546C26.86 14.834 27.058 15.173 27.19 15.563C27.322 15.947 27.388 16.358 27.388 16.796C27.388 17.282 27.313 17.723 27.163 18.119C27.019 18.509 26.809 18.845 26.533 19.127C26.257 19.403 25.924 19.619 25.534 19.775C25.15 19.925 24.718 20 24.238 20H21.916ZM26.137 16.796C26.137 16.49 26.095 16.208 26.011 15.95C25.927 15.692 25.804 15.47 25.642 15.284C25.48 15.098 25.279 14.954 25.039 14.852C24.805 14.75 24.538 14.699 24.238 14.699H23.158V18.911H24.238C24.544 18.911 24.814 18.857 25.048 18.749C25.288 18.641 25.486 18.494 25.642 18.308C25.804 18.116 25.927 17.891 26.011 17.633C26.095 17.375 26.137 17.096 26.137 16.796Z" fill="white"/>
</svg>
